# xmcd CD database file generated by Grip 3.0.5
# 
# Track frame offsets:
#       150
#       19410
#       37342
#       57261
#       79914
#       97207
#       120973
#       139133
#       150269
#       167141
#       183150
# 
# Disc length: 2710 seconds
# 
# Revision: 1
# Processed by: cddbd v1.4PL0 Copyright (c) Steve Scherf et al.
# Submitted via: Grip 3.0.5
# 
DISCID=8f0a940b
DTITLE=Steve "Big Man" Clayton and The Boogie Circus - You Know What I Mean ?
DYEAR=2000
DGENRE=Blues
TTITLE0=Someday
TTITLE1=Berlin Boogie
TTITLE2=Moanin' And Groanin'
TTITLE3=Ain't That Good Lovin'
TTITLE4=Clockwork Boogie
TTITLE5=Love You Night And Day
TTITLE6=You Know What I Mean?
TTITLE7=Gotta Lotta Lovin' In Me
TTITLE8=Travellin' Blues
TTITLE9=Send Me
TTITLE10=Farewell My Love Goodbye
EXTD=YEAR: 1999
EXTT0=
EXTT1=
EXTT2=
EXTT3=
EXTT4=
EXTT5=
EXTT6=
EXTT7=
EXTT8=
EXTT9=
EXTT10=
PLAYORDER=
